HIERARCHY
ROOT Hips
{
    OFFSET 0.000000 0.000000 0.000000
    CHANNELS 6 Xposition Yposition Zposition Zrotation Xrotation Yrotation
    JOINT Spine
    {
        OFFSET -0.000000 7.236184 0.000000
        CHANNELS 3 Zrotation Xrotation Yrotation
        JOINT Spine1
        {
            OFFSET -0.000000 20.420147 0.000000
            CHANNELS 3 Zrotation Xrotation Yrotation
            JOINT Neck
            {
                OFFSET -0.000000 20.336288 1.848754
                CHANNELS 3 Zrotation Xrotation Yrotation
                JOINT Head
                {
                    OFFSET -0.000000 12.354461 -1.764923
                    CHANNELS 3 Zrotation Xrotation Yrotation
                    End Site
                    {
                        OFFSET -0.000000 22.061537 0.000000
                    }
                }
            }
            JOINT LeftShoulder
            {
                OFFSET 3.573296 18.396038 -0.314103
                CHANNELS 3 Zrotation Xrotation Yrotation
                JOINT LeftArm
                {
                    OFFSET 10.880760 0.000000 0.000000
                    CHANNELS 3 Zrotation Xrotation Yrotation
                    JOINT LeftForeArm
                    {
                        OFFSET 27.185530 0.000000 0.000000
                        CHANNELS 3 Zrotation Xrotation Yrotation
                        JOINT LeftHand
                        {
                            OFFSET 27.825975 0.000000 0.000000
                            CHANNELS 3 Zrotation Xrotation Yrotation
                            End Site
                            {
                                OFFSET 13.236923 0.000000 0.000000
                            }
                        }
                    }
                }
            }
            JOINT RightShoulder
            {
                OFFSET -3.474926 18.396038 -0.314103
                CHANNELS 3 Zrotation Xrotation Yrotation
                JOINT RightArm
                {
                    OFFSET -10.880760 0.000000 0.000000
                    CHANNELS 3 Zrotation Xrotation Yrotation
                    JOINT RightForeArm
                    {
                        OFFSET -27.185530 0.000000 0.000000
                        CHANNELS 3 Zrotation Xrotation Yrotation
                        JOINT RightHand
                        {
                            OFFSET -27.825975 0.000000 0.000000
                            CHANNELS 3 Zrotation Xrotation Yrotation
                            End Site
                            {
                                OFFSET -13.236923 0.000000 0.000000
                            }
                        }
                    }
                }
            }
        }
    }
    JOINT LeftUpLeg
    {
        OFFSET 8.824615 0.000000 0.000000
        CHANNELS 3 Zrotation Xrotation Yrotation
        JOINT LeftLeg
        {
            OFFSET -0.000000 -35.111282 0.000000
            CHANNELS 3 Zrotation Xrotation Yrotation
            JOINT LeftFoot
            {
                OFFSET -0.000000 -42.324711 0.000000
                CHANNELS 3 Zrotation Xrotation Yrotation
                JOINT LeftToeBase
                {
                    OFFSET -0.000000 -5.735999 13.236923
                    CHANNELS 3 Zrotation Xrotation Yrotation
                    End Site
                    {
                        OFFSET -0.000000 0.000000 3.529846
                    }
                }
            }
        }
    }
    JOINT RightUpLeg
    {
        OFFSET -8.824615 0.000000 0.000000
        CHANNELS 3 Zrotation Xrotation Yrotation
        JOINT RightLeg
        {
            OFFSET -0.000000 -35.111282 0.000000
            CHANNELS 3 Zrotation Xrotation Yrotation
            JOINT RightFoot
            {
                OFFSET -0.000000 -42.324711 0.000000
                CHANNELS 3 Zrotation Xrotation Yrotation
                JOINT RightToeBase
                {
                    OFFSET -0.000000 -5.735999 13.236923
                    CHANNELS 3 Zrotation Xrotation Yrotation
                    End Site
                    {
                        OFFSET -0.000000 0.000000 3.529846
                    }
                }
            }
        }
    }
}
MOTION
Frames:    6
Frame Time:    0.008333
-4.935510    82.710938    107.749626    4.211565    -5.393922    -156.270020    -2.982343    -11.810257    -1.021197    -1.688606    6.969588    -0.609802    1.617414    12.005363    -8.886691    18.211594    -0.963534    -6.570490    6.602255    9.151790    -16.915337    -32.702221    27.494810    -70.054085    13.552673    -41.425800    -115.889595    22.647934    -21.269131    9.003277    1.549535    9.341098    7.983587    49.214066    1.084572    52.956940    -9.900111    -39.076881    124.333916    -14.579383    -22.343580    -4.788401    10.426522    -19.547462    2.675561    -0.101364    25.044279    11.065171    -10.738815    -8.051848    -13.567755    1.570144    1.896313    -1.734590    -8.950739    -4.587982    -8.060583    11.458418    21.358681    -17.048738    0.000000    0.000000    0.000000    0.000000    0.000000    0.000000    
-4.953244    82.715477    107.739532    4.201292    -5.407244    -156.405548    -2.980167    -11.807017    -1.032399    -1.687260    6.914230    -0.622201    1.607215    12.053349    -8.851937    18.214645    -0.927155    -6.538203    6.598760    9.129217    -16.937342    -32.724121    27.403164    -69.963676    13.550995    -41.427769    -115.931778    22.681475    -21.250023    9.027398    1.488060    9.266204    8.023835    49.209484    0.998353    52.962551    -9.860127    -39.054592    124.399338    -14.676309    -22.354347    -4.844775    10.431194    -19.487003    2.700824    -0.124552    25.014734    11.164819    -10.727633    -8.064807    -13.550721    1.566939    1.895677    -1.731051    -8.967800    -4.602823    -8.035854    11.441936    21.334206    -17.006271    0.000000    0.000000    0.000000    0.000000    0.000000    0.000000    
-4.970916    82.720062    107.729591    4.190964    -5.420726    -156.540161    -2.977797    -11.803647    -1.043398    -1.686125    6.858916    -0.634474    1.597324    12.101007    -8.817390    18.216908    -0.892072    -6.506075    6.595382    9.106555    -16.959997    -32.746696    27.310183    -69.873230    13.548656    -41.429550    -115.974655    22.717371    -21.230736    9.052967    1.427068    9.193211    8.063228    49.202328    0.909848    52.972240    -9.821001    -39.033245    124.463295    -14.771484    -22.365440    -4.900103    10.435470    -19.426785    2.726505    -0.147429    24.984549    11.263334    -10.716522    -8.077402    -13.533935    1.563867    1.895642    -1.727658    -8.984911    -4.617693    -8.010516    11.425946    21.309429    -16.964375    0.000000    0.000000    0.000000    0.000000    0.000000    0.000000    
-4.988285    82.724678    107.720039    4.180791    -5.434493    -156.671768    -2.975077    -11.800323    -1.053993    -1.685597    6.804278    -0.646301    1.588212    12.146935    -8.783643    18.217957    -0.858855    -6.474739    6.592963    9.083590    -16.983797    -32.772213    27.215895    -69.783867    13.545149    -41.430168    -116.018181    22.757345    -21.210962    9.080947    1.367727    9.124457    8.100810    49.190254    0.818134    52.988682    -9.783498    -39.013390    124.524902    -14.862288    -22.376871    -4.952890    10.439266    -19.367878    2.752658    -0.169577    24.953846    11.358506    -10.705699    -8.089501    -13.517361    1.561181    1.896111    -1.724690    -9.001824    -4.632623    -7.984238    11.410902    21.284451    -16.923929    0.000000    0.000000    0.000000    0.000000    0.000000    0.000000    
-5.005402    82.729393    107.710983    4.170793    -5.448839    -156.800766    -2.971865    -11.796897    -1.063977    -1.685751    6.750071    -0.657536    1.580007    12.190416    -8.750715    18.217413    -0.827631    -6.444286    6.591758    9.059747    -17.009092    -32.802212    27.119640    -69.695518    13.539993    -41.429276    -116.063026    22.803049    -21.190224    9.112016    1.310088    9.060293    8.135732    49.171371    0.722071    53.014339    -9.747673    -38.995090    124.584694    -14.947922    -22.388382    -5.002956    10.442598    -19.310160    2.779927    -0.190967    24.922081    11.450438    -10.695296    -8.100918    -13.501210    1.559121    1.897689    -1.722408    -9.018549    -4.648114    -7.956122    11.396765    21.259237    -16.885313    0.000000    0.000000    0.000000    0.000000    0.000000    0.000000    
-5.022315    82.734238    107.702446    4.161051    -5.464100    -156.927856    -2.968247    -11.793523    -1.073281    -1.686406    6.696157    -0.667970    1.573521    12.231286    -8.718462    18.213900    -0.799204    -6.414651    6.592003    9.034903    -17.036684    -32.837646    27.020847    -69.608231    13.533518    -41.427246    -116.108986    22.855688    -21.168316    9.146537    1.254619    9.001184    8.167580    49.143784    0.620704    53.050877    -9.713690    -38.978603    124.642670    -15.027563    -22.400019    -5.050129    10.445609    -19.253605    2.808960    -0.211652    24.888918    11.539118    -10.685373    -8.111664    -13.485414    1.557572    1.900304    -1.720690    -9.035181    -4.664664    -7.924764    11.383949    21.233679    -16.848734    0.000000    0.000000    0.000000    0.000000    0.000000    0.000000    
